<svg xmlns="http://www.w3.org/2000/svg" aria-hidden="true" role="img" width="1.2em" height="1.2em" viewBox="0 0 24 24" fill="currentColor">
  <g transform="translate(1.2,22.8) scale(0.0105,-0.0105)">
    <path d="M1820 1481 c-63 -77 -122 -140 -131 -140 -9 -1 -51 9 -95 21 -121 33
    -324 31 -457 -5 -182 -48 -385 -160 -563 -310 -101 -84 -204 -191 -204 -211 0
    -20 196 -206 295 -279 50 -37 125 -86 167 -109 43 -24 78 -45 78 -48 0 -3 -70
    -90 -156 -193 -85 -103 -153 -191 -149 -197 3 -5 26 -10 50 -10 l43 0 148 178
    c81 97 148 178 150 180 1 2 37 -8 81 -21 126 -40 208 -50 339 -44 230 10 441
    94 671 266 103 77 293 258 293 279 0 23 -176 190 -293 278 -60 45 -151 104
    -203 130 -51 27 -94 52 -94 56 0 3 49 65 110 138 l110 132 -29 24 c-16 13 -33
    24 -38 24 -5 0 -60 -63 -123 -139z m-251 -205 c29 -8 55 -16 57 -18 2 -2 -16
    -26 -39 -53 l-43 -48 -49 16 c-69 24 -181 22 -250 -4 -73 -27 -156 -104 -192
    -177 -25 -50 -28 -68 -28 -152 0 -88 3 -101 33 -162 l33 -68 -58 -69 -58 -69
    -56 28 c-94 48 -229 144 -338 241 l-105 93 91 85 c204 194 454 330 677 371 69
    12 258 4 325 -14z m224 -82 c139 -70 270 -162 392 -276 41 -38 75 -76 75 -82
    0 -17 -168 -164 -269 -236 -142 -102 -333 -186 -479 -211 -89 -16 -279 -6
    -365 19 -37 11 -71 22 -74 26 -5 5 8 25 68 98 15 19 16 19 62 -6 143 -76 307
    -52 420 61 26 26 60 72 75 103 23 47 27 68 27 140 0 98 -19 157 -72 226 l-34
    45 48 60 c26 32 54 59 61 59 7 0 36 -12 65 -26z m-335 -100 c12 -4 22 -9 22
    -13 0 -6 -285 -349 -315 -380 -13 -13 -17 -8 -36 34 -17 39 -21 62 -17 119 5
    80 22 120 75 172 52 52 105 74 183 74 36 0 75 -3 88 -6z m119 -81 c36 -45 63
    -119 62 -173 0 -133 -83 -235 -211 -262 -64 -13 -152 1 -188 30 -21 17 -19 20
    147 219 92 111 170 202 172 202 2 1 10 -7 18 -16z"/>
  </g>
</svg>
