<svg xmlns="http://www.w3.org/2000/svg" xmlns:xlink="http://www.w3.org/1999/xlink" aria-hidden="true" role="img" class="iconify iconify--lucide text-primary/20 text-4xl mb-4" data-locator="src/components/testimonials.tsx:Icon:41:16" width="1em" height="1em" viewBox="0 0 24 24"><path fill="none" stroke="#d6d6d6" stroke-linecap="round" stroke-linejoin="round" stroke-width="2" d="M16 3a2 2 0 0 0-2 2v6a2 2 0 0 0 2 2a1 1 0 0 1 1 1v1a2 2 0 0 1-2 2a1 1 0 0 0-1 1v2a1 1 0 0 0 1 1a6 6 0 0 0 6-6V5a2 2 0 0 0-2-2zM5 3a2 2 0 0 0-2 2v6a2 2 0 0 0 2 2a1 1 0 0 1 1 1v1a2 2 0 0 1-2 2a1 1 0 0 0-1 1v2a1 1 0 0 0 1 1a6 6 0 0 0 6-6V5a2 2 0 0 0-2-2z"></path></svg>